<svg xmlns="http://www.w3.org/2000/svg" xmlns:xlink="http://www.w3.org/1999/xlink" width="500" zoomAndPan="magnify" viewBox="0 0 375 374.999991" height="500" preserveAspectRatio="xMidYMid meet" version="1.0"><defs><g/></defs><g fill="#62eb31" fill-opacity="1"><g transform="translate(-23.978278, 253.307643)"><g><path d="M 376.484375 58.984375 C 358.429688 68.003906 339.226562 72.515625 318.875 72.515625 C 300.832031 72.515625 284.410156 69.738281 269.609375 64.1875 C 237.679688 52.394531 210.5 29.378906 188.0625 -4.859375 C 182.28125 -13.179688 171.523438 -29.140625 155.796875 -52.734375 C 140.066406 -76.335938 129.890625 -91.375 125.265625 -97.84375 C 117.160156 -110.570312 110.679688 -117.515625 105.828125 -118.671875 L 105.828125 -122.140625 C 106.054688 -122.140625 106.34375 -122.140625 106.6875 -122.140625 C 107.039062 -122.140625 107.445312 -122.140625 107.90625 -122.140625 C 108.375 -122.140625 108.835938 -122.140625 109.296875 -122.140625 C 109.765625 -122.140625 110.34375 -122.140625 111.03125 -122.140625 C 111.726562 -122.140625 112.304688 -122.140625 112.765625 -122.140625 C 124.566406 -122.140625 135.441406 -124.800781 145.390625 -130.125 C 160.421875 -138.445312 167.9375 -153.828125 167.9375 -176.265625 C 167.9375 -192.691406 163.3125 -205.359375 154.0625 -214.265625 C 144.8125 -223.171875 133.707031 -227.625 120.75 -227.625 L 94.375 -227.625 L 94.375 -25.328125 C 94.375 -19.316406 96.570312 -14.171875 100.96875 -9.890625 C 105.363281 -5.609375 110.570312 -3.46875 116.59375 -3.46875 L 121.09375 -3.46875 L 121.09375 0 L 15.609375 0 L 15.609375 -3.46875 L 20.125 -3.46875 C 25.90625 -3.46875 30.992188 -5.550781 35.390625 -9.71875 C 39.785156 -13.882812 42.097656 -18.972656 42.328125 -24.984375 L 42.328125 -217.5625 C 42.097656 -223.570312 39.84375 -228.71875 35.5625 -233 C 31.28125 -237.28125 26.132812 -239.421875 20.125 -239.421875 L 15.609375 -239.421875 L 15.609375 -242.890625 L 134.625 -242.890625 C 164.46875 -242.890625 187.601562 -236.066406 204.03125 -222.421875 C 216.976562 -211.773438 223.453125 -196.734375 223.453125 -177.296875 C 223.453125 -157.867188 217.148438 -142.082031 204.546875 -129.9375 C 191.941406 -117.800781 177.539062 -111.734375 161.34375 -111.734375 C 159.957031 -111.734375 158.457031 -111.847656 156.84375 -112.078125 C 166.320312 -106.984375 174.238281 -101.3125 180.59375 -95.0625 C 186.957031 -88.820312 192.507812 -82.925781 197.25 -77.375 C 202 -71.820312 206.050781 -66.90625 209.40625 -62.625 C 212.757812 -58.351562 217.210938 -52.6875 222.765625 -45.625 C 228.316406 -38.570312 234.097656 -31.226562 240.109375 -23.59375 C 246.128906 -15.957031 252.78125 -8.148438 260.0625 -0.171875 C 267.351562 7.804688 275.453125 15.378906 284.359375 22.546875 C 293.265625 29.722656 302.34375 35.625 311.59375 40.25 C 331.25 50.195312 352.878906 55.285156 376.484375 55.515625 Z M 376.484375 58.984375 "/></g></g></g><g fill="#4f4f4f" fill-opacity="1"><g transform="translate(83.854185, 369.06539)"><g><path d="M 166.730469 3.96875 C 206.824219 3.96875 252.875 -16.671875 275.898438 -48.828125 L 275.898438 -123.460938 L 223.894531 -123.460938 L 223.894531 -118.695312 C 240.964844 -114.328125 244.140625 -104.800781 244.140625 -80.1875 L 244.535156 -39.699219 C 234.613281 -19.847656 208.808594 -3.96875 179.035156 -3.96875 C 98.847656 -3.96875 52.003906 -86.144531 52.796875 -161.171875 C 53.589844 -234.214844 96.464844 -273.515625 153.628906 -273.515625 C 200.074219 -273.515625 236.597656 -246.519531 251.285156 -212.382812 L 255.253906 -213.175781 L 253.667969 -260.019531 C 238.183594 -270.339844 200.472656 -280.660156 165.140625 -280.660156 C 80.1875 -280.660156 20.644531 -216.75 20.644531 -136.957031 C 20.644531 -51.605469 78.203125 3.96875 166.730469 3.96875 Z M 166.730469 3.96875 "/></g></g></g></svg>